O.Hobbit.Uma.Jornada.Inesperada.DVDSCR.XviD.Dublado-YanKeeS


Format                                   : AVI
Format/Info                              : Audio Video Interleave
Format profile                           : OpenDML
File size                                : 959 MiB
Duration                                 : 2h 49mn
Overall bit rate                         : 791 Kbps
Writing application                      : AVI-Mux GUI 1.16.11, Dec 15 2004  14:51:34

Video
ID                                       : 0
Format                                   : MPEG-4 Visual
Format profile                           : Advanced Simple@L5
Format settings, BVOP                    : 2
Format settings, QPel                    : No
Format settings, GMC                     : No warppoints
Format settings, Matrix                  : Default (H.263)
Codec ID                                 : XVID
Codec ID/Hint                            : XviD
Duration                                 : 2h 49mn
Bit rate                                 : 654 Kbps
Width                                    : 608 pixels
Height                                   : 256 pixels
Display aspect ratio                     : 2.40:1
Frame rate                               : 29.535 fps
Original frame rate                      : 29.534 fps
Color space                              : YUV
Chroma subsampling                       : 4:2:0
Bit depth                                : 8 bits
Scan type                                : Progressive
Compression mode                         : Lossy
Bits/(Pixel*Frame)                       : 0.142
Stream size                              : 793 MiB (83%)
Writing library                          : XviD 1.2.1 (UTC 2008-12-04)

Audio
ID                                       : 1
Format                                   : MPEG Audio
Format version                           : Version 1
Format profile                           : Layer 3
Mode                                     : Joint stereo
Mode extension                           : MS Stereo
Codec ID                                 : 55
Codec ID/Hint                            : MP3
Duration                                 : 2h 49mn
Bit rate mode                            : Constant
Bit rate                                 : 128 Kbps
Channel(s)                               : 2 channels
Sampling rate                            : 48.0 KHz
Compression mode                         : Lossy
Stream size                              : 155 MiB (16%)
Alignment                                : Aligned on interleaves
Interleave, duration                     : 24 ms (0.71 video frame)
Interleave, preload duration             : 192 ms
Title                                    : PTBR - YanKeeS

